<svg width="48" height="49" viewBox="0 0 48 49" fill="none" xmlns="http://www.w3.org/2000/svg">
<path d="M1 29.1591V3C1 1.89543 1.89543 1 3 1H45C46.1046 1 47 1.89543 47 3V41C47 42.1046 46.1046 43 45 43H28.0476" stroke="#30404D" stroke-width="2"/>
<path d="M4.78906 34.2617H3.04688V39H1.875V34.2617H0.15625V33.3125H4.78906V34.2617ZM10.0898 39H8.91797V36.5625H6.63281V39H5.46094V33.3125H6.63281V35.6172H8.91797V33.3125H10.0898V39ZM14.5391 36.5352H12.2891V38.0586H14.9297V39H11.1172V33.3125H14.9219V34.2617H12.2891V35.6172H14.5391V36.5352ZM3.45703 46.5078C3.45703 46.2865 3.37891 46.1172 3.22266 46C3.06641 45.8802 2.78516 45.7552 2.37891 45.625C1.97266 45.4922 1.65104 45.362 1.41406 45.2344C0.768229 44.8854 0.445312 44.4154 0.445312 43.8242C0.445312 43.5169 0.53125 43.2435 0.703125 43.0039C0.877604 42.7617 1.1263 42.5729 1.44922 42.4375C1.77474 42.3021 2.13932 42.2344 2.54297 42.2344C2.94922 42.2344 3.3112 42.3086 3.62891 42.457C3.94661 42.6029 4.19271 42.8099 4.36719 43.0781C4.54427 43.3464 4.63281 43.651 4.63281 43.9922H3.46094C3.46094 43.7318 3.37891 43.5299 3.21484 43.3867C3.05078 43.2409 2.82031 43.168 2.52344 43.168C2.23698 43.168 2.01432 43.2292 1.85547 43.3516C1.69661 43.4714 1.61719 43.6302 1.61719 43.8281C1.61719 44.013 1.70964 44.168 1.89453 44.293C2.08203 44.418 2.35677 44.5352 2.71875 44.6445C3.38542 44.8451 3.87109 45.0938 4.17578 45.3906C4.48047 45.6875 4.63281 46.0573 4.63281 46.5C4.63281 46.9922 4.44661 47.3789 4.07422 47.6602C3.70182 47.9388 3.20052 48.0781 2.57031 48.0781C2.13281 48.0781 1.73438 47.9987 1.375 47.8398C1.01562 47.6784 0.740885 47.4583 0.550781 47.1797C0.363281 46.901 0.269531 46.5781 0.269531 46.2109H1.44531C1.44531 46.8385 1.82031 47.1523 2.57031 47.1523C2.84896 47.1523 3.06641 47.0964 3.22266 46.9844C3.37891 46.8698 3.45703 46.7109 3.45703 46.5078ZM9.71094 43.2617H7.96875V48H6.79688V43.2617H5.07812V42.3125H9.71094V43.2617ZM14.9453 45.2852C14.9453 45.8451 14.8464 46.3359 14.6484 46.7578C14.4505 47.1797 14.1667 47.5052 13.7969 47.7344C13.4297 47.9635 13.0078 48.0781 12.5312 48.0781C12.0599 48.0781 11.6393 47.9648 11.2695 47.7383C10.8997 47.5117 10.6133 47.1888 10.4102 46.7695C10.207 46.3477 10.1042 45.8633 10.1016 45.3164V45.0352C10.1016 44.4753 10.2018 43.9831 10.4023 43.5586C10.6055 43.1315 10.8906 42.8047 11.2578 42.5781C11.6276 42.349 12.0495 42.2344 12.5234 42.2344C12.9974 42.2344 13.418 42.349 13.7852 42.5781C14.1549 42.8047 14.4401 43.1315 14.6406 43.5586C14.8438 43.9831 14.9453 44.474 14.9453 45.0312V45.2852ZM13.7578 45.0273C13.7578 44.431 13.651 43.9779 13.4375 43.668C13.224 43.3581 12.9193 43.2031 12.5234 43.2031C12.1302 43.2031 11.8268 43.3568 11.6133 43.6641C11.3997 43.9688 11.2917 44.4167 11.2891 45.0078V45.2852C11.2891 45.8659 11.3958 46.3164 11.6094 46.6367C11.8229 46.957 12.1302 47.1172 12.5312 47.1172C12.9245 47.1172 13.2266 46.9635 13.4375 46.6562C13.6484 46.3464 13.7552 45.8958 13.7578 45.3047V45.0273ZM17.9023 45.918H16.9688V48H15.7969V42.3125H17.9102C18.582 42.3125 19.1003 42.4622 19.4648 42.7617C19.8294 43.0612 20.0117 43.4844 20.0117 44.0312C20.0117 44.4193 19.9271 44.7435 19.7578 45.0039C19.5911 45.2617 19.3372 45.4674 18.9961 45.6211L20.2266 47.9453V48H18.9688L17.9023 45.918ZM16.9688 44.9688H17.9141C18.2083 44.9688 18.4362 44.8945 18.5977 44.7461C18.7591 44.5951 18.8398 44.388 18.8398 44.125C18.8398 43.8568 18.763 43.6458 18.6094 43.4922C18.4583 43.3385 18.2253 43.2617 17.9102 43.2617H16.9688V44.9688ZM24.3281 45.5352H22.0781V47.0586H24.7188V48H20.9062V42.3125H24.7109V43.2617H22.0781V44.6172H24.3281V45.5352Z" fill="#30404D"/>
<path fill-rule="evenodd" clip-rule="evenodd" d="M38.7609 20.9962C38.1454 21.0869 37.5132 21.1348 36.8662 21.1348C28.9299 21.1348 22.4963 14.6811 22.4963 6.7201C22.4963 6.15484 22.5238 5.60652 22.5774 5.0752C15.9532 6.32343 11 10.5214 11 18.4114C11 26.4684 17.5112 32.9999 25.5431 32.9999C33.5751 32.9999 39 26.1058 39 20.9999C38.9193 20.9999 38.8397 20.9987 38.7609 20.9962Z" fill="#30404D"/>
<path d="M39 20C31.3197 19.3763 24.7745 13.1621 23.8345 5.16968L39 20Z" fill="#30404D"/>
</svg>
