<svg width="25" height="24" viewBox="0 0 25 24" fill="none" xmlns="http://www.w3.org/2000/svg">
<mask id="mask0_1_6" style="mask-type:alpha" maskUnits="userSpaceOnUse" x="0" y="0" width="25" height="24">
<path d="M24.1179 7.99803C22.6564 13.498 12.1802 23.9988 12.1802 23.9988C12.1802 23.9988 1.15643 12.998 0.15645 7.99802C-0.843533 2.99802 3.16127 0 6.15645 0C9.15163 0 12.1802 2.49803 12.1802 2.49803C12.1802 2.49803 14.6668 -0.00196232 17.6565 4.52629e-06C20.6461 0.00197136 25.4464 2.99803 24.1179 7.99803Z" fill="white"/>
</mask>
<g mask="url(#mask0_1_6)">
<path d="M12.1802 23.9988L13.596 25.4114C13.2214 25.7869 12.7129 25.9982 12.1824 25.9988C11.6519 25.9994 11.1429 25.7892 10.7674 25.4145L12.1802 23.9988ZM24.1179 7.99803L22.1849 7.48443L24.1179 7.99803ZM17.6565 4.52995e-06L17.6551 2L17.6565 4.52995e-06ZM12.1802 2.49803L13.5982 3.90844L12.3132 5.20033L10.9076 4.04091L12.1802 2.49803ZM12.1802 23.9988C10.7643 22.5863 10.7642 22.5864 10.7642 22.5864C10.7642 22.5864 10.7642 22.5864 10.7643 22.5863C10.7644 22.5862 10.7647 22.5859 10.7651 22.5854C10.7661 22.5845 10.7676 22.583 10.7698 22.5808C10.7741 22.5764 10.7809 22.5696 10.7901 22.5603C10.8084 22.5418 10.8364 22.5135 10.8734 22.476C10.9474 22.4009 11.0573 22.2888 11.1985 22.1434C11.481 21.8526 11.888 21.4292 12.3819 20.9032C13.3708 19.8498 14.7016 18.392 16.0739 16.7694C17.45 15.1423 18.8467 13.3746 19.9788 11.6988C21.1397 9.98058 21.9093 8.52181 22.1849 7.48443L26.0508 8.51163C25.5957 10.2242 24.5077 12.1406 23.2933 13.9381C22.0502 15.7781 20.5537 17.6668 19.1281 19.3525C17.6986 21.0426 16.319 22.5537 15.298 23.6411C14.7868 24.1855 14.364 24.6254 14.0679 24.9303C13.9197 25.0828 13.8032 25.2017 13.723 25.2831C13.6829 25.3238 13.6518 25.3552 13.6305 25.3767C13.6198 25.3875 13.6115 25.3958 13.6058 25.4016C13.6029 25.4045 13.6006 25.4068 13.599 25.4084C13.5982 25.4092 13.5975 25.4099 13.597 25.4104C13.5968 25.4106 13.5965 25.4109 13.5964 25.411C13.5962 25.4112 13.596 25.4114 12.1802 23.9988ZM22.1849 7.48443C22.6361 5.78667 22.0833 4.50664 21.1094 3.55587C20.0477 2.5194 18.5914 2.00062 17.6551 2L17.6578 -1.99999C19.7112 -1.99864 22.1499 -1.01841 23.9036 0.693641C25.7451 2.49139 26.9282 5.20939 26.0508 8.51163L22.1849 7.48443ZM17.6551 2C16.6947 1.99937 15.7039 2.4128 14.8604 2.94225C14.4558 3.19623 14.1254 3.45157 13.8995 3.64078C13.7874 3.73463 13.7035 3.81013 13.6516 3.85821C13.6257 3.88219 13.6079 3.89916 13.5988 3.90797C13.5943 3.91236 13.5919 3.9147 13.5918 3.91483C13.5917 3.9149 13.5922 3.91441 13.5933 3.91335C13.5938 3.91282 13.5945 3.91215 13.5953 3.91133C13.5957 3.91092 13.5961 3.91048 13.5966 3.91C13.5969 3.90976 13.5973 3.90937 13.5974 3.90925C13.5978 3.90885 13.5982 3.90844 12.1802 2.49803C10.7622 1.08762 10.7626 1.0872 10.763 1.08676C10.7632 1.0866 10.7636 1.08616 10.7639 1.08584C10.7646 1.0852 10.7652 1.08453 10.766 1.08382C10.7674 1.0824 10.769 1.08082 10.7707 1.07909C10.7742 1.07563 10.7783 1.07155 10.783 1.06689C10.7925 1.05756 10.8044 1.04586 10.8188 1.03195C10.8476 1.00413 10.8862 0.96739 10.9341 0.923016C11.0299 0.834386 11.1636 0.714592 11.3313 0.574099C11.6651 0.294622 12.1432 -0.0749194 12.7339 -0.445685C13.8811 -1.16574 15.6285 -2.00133 17.6578 -1.99999L17.6551 2ZM12.1802 2.49803C10.9076 4.04091 10.9079 4.0412 10.9083 4.04148C10.9084 4.04156 10.9087 4.04184 10.9089 4.042C10.9093 4.04233 10.9096 4.04262 10.91 4.04288C10.9106 4.04338 10.911 4.04375 10.9113 4.04397C10.9118 4.0444 10.9116 4.04426 10.9108 4.04357C10.9091 4.04217 10.9046 4.03855 10.8975 4.03285C10.8832 4.02145 10.8583 4.00179 10.8236 3.97504C10.754 3.92145 10.6457 3.84 10.5044 3.73993C10.22 3.53855 9.81164 3.26856 9.32509 3.00003C8.30249 2.43564 7.1526 2 6.15645 2V-2C8.15548 -2 10.0174 -1.18663 11.2579 -0.501999C11.9029 -0.146022 12.4389 0.208498 12.816 0.475494C13.0054 0.609617 13.157 0.723323 13.2648 0.806347C13.3187 0.847905 13.3618 0.881912 13.3934 0.907102C13.4092 0.919701 13.4221 0.930108 13.432 0.938166C13.437 0.942195 13.4412 0.945639 13.4446 0.948477C13.4464 0.949896 13.4479 0.951163 13.4493 0.952277C13.45 0.952834 13.4506 0.953353 13.4512 0.953833C13.4515 0.954073 13.4519 0.954404 13.452 0.954524C13.4524 0.954845 13.4528 0.955156 12.1802 2.49803ZM6.15645 2C5.26441 2 4.03863 2.47966 3.13758 3.46997C2.29779 4.39297 1.74704 5.7529 2.11761 7.6058L-1.80471 8.39025C-2.43412 5.24314 -1.48246 2.60406 0.178947 0.778045C1.7791 -0.980648 4.05331 -2 6.15645 -2V2ZM2.11761 7.6058C2.28289 8.43222 2.9526 9.77182 4.11324 11.4864C5.22882 13.1344 6.64779 14.9152 8.06451 16.575C9.47652 18.2293 10.8615 19.7345 11.8953 20.8277C12.4115 21.3736 12.8384 21.815 13.1352 22.1188C13.2836 22.2707 13.3993 22.3881 13.4773 22.4669C13.5163 22.5063 13.5459 22.536 13.5654 22.5556C13.5751 22.5653 13.5823 22.5726 13.587 22.5772C13.5893 22.5795 13.5909 22.5811 13.5919 22.5821C13.5924 22.5826 13.5927 22.583 13.5929 22.5831C13.593 22.5832 13.593 22.5832 13.593 22.5833C13.593 22.5832 13.5929 22.5831 12.1802 23.9988C10.7674 25.4145 10.7673 25.4143 10.7671 25.4141C10.7669 25.414 10.7667 25.4138 10.7664 25.4135C10.7659 25.413 10.7652 25.4123 10.7644 25.4115C10.7627 25.4098 10.7604 25.4075 10.7574 25.4045C10.7514 25.3985 10.7428 25.3899 10.7316 25.3787C10.7093 25.3563 10.6769 25.3236 10.6349 25.2812C10.5509 25.1964 10.4289 25.0726 10.2739 24.9139C9.96393 24.5966 9.52182 24.1395 8.9889 23.576C7.92446 22.4503 6.49102 20.8928 5.0221 19.1719C3.55788 17.4564 2.03342 15.5496 0.800811 13.7287C-0.386746 11.9743 -1.47 10.0638 -1.80471 8.39025L2.11761 7.6058Z" fill="white"/>
</g>
</svg>
